<?xml version="1.0" encoding="UTF-8"?>
<svg width="1442px" height="972px" viewBox="0 0 1442 972" version="1.1" xmlns="http://www.w3.org/2000/svg" xmlns:xlink="http://www.w3.org/1999/xlink">
    <title>Runs</title>
    <defs>
        <rect id="path-1" x="0" y="0" width="1442" height="972"></rect>
    </defs>
    <g id="Page-1" stroke="none" stroke-width="1" fill="none" fill-rule="evenodd">
        <g id="Static" transform="translate(2.000000, -392.000000)">
            <g id="ZLTAMap" transform="translate(-2.000000, 0.000000)">
                <g id="Runs" transform="translate(0.000000, 392.000000)">
                    <mask id="mask-2" fill="white">
                        <use xlink:href="#path-1"></use>
                    </mask>
                    <g id="Mask-Copy"></g>
                    <path d="M435.811401,728.906114 L542,580.338427 L642.602989,512.35047 C642.602989,512.35047 768.473573,494.472323 775.02582,493.172089 C781.578067,491.871856 942.132239,515.804961 942.132239,515.804961 L1181.34479,663.395111" id="BoatRide-2" stroke="#FF5100" stroke-width="6.08" stroke-linecap="round" stroke-dasharray="10" mask="url(#mask-2)"></path>
                    <path d="M257,716 L301.315604,736.253168 C321.434089,745.447275 344.920583,743.511049 363.247572,731.151271 L364,730.640487" id="Trail1" stroke="#F7EC13" stroke-width="6.08" stroke-linecap="round" stroke-dasharray="10" mask="url(#mask-2)"></path>
                    <path d="M607,434.453444 L646.335159,436.889263 C655.58555,437.456593 662.976265,435.958102 669.983046,429.729805 L676,425" id="Trail2" stroke="#F7EC13" stroke-width="6.08" stroke-linecap="round" stroke-dasharray="10" mask="url(#mask-2)"></path>
                    <line x1="125" y1="737" x2="55" y2="709" id="Trail3" stroke="#F7EC13" stroke-width="6.08" stroke-linecap="round" stroke-dasharray="10" mask="url(#mask-2)"></line>
                    <path d="M242.95122,661 L262.789713,646.289262 L301,626" id="Trail4" stroke="#F7EC13" stroke-width="4.92" stroke-linecap="round" stroke-dasharray="10" mask="url(#mask-2)"></path>
                    <path d="M929,373 C929,373 922.991067,335.929185 852.438213,335.929185 C781.88536,335.929185 741.8,311.526112 741.8,311.526112 L689,281" id="Trail5" stroke="#F7EC13" stroke-width="6.08" stroke-linecap="round" stroke-dasharray="10" mask="url(#mask-2)"></path>
                    <g id="Run6" mask="url(#mask-2)" stroke="#FFFFFF" stroke-linecap="round" stroke-width="7.3">
                        <g transform="translate(802.815608, 404.341346) rotate(-8.000000) translate(-802.815608, -404.341346) translate(682.631217, 395.682692)" id="Path">
                            <line x1="0" y1="17.3173077" x2="240.368783" y2="0"></line>
                        </g>
                    </g>
                    <g id="Run5" mask="url(#mask-2)" stroke="#FFFFFF" stroke-linecap="round" stroke-width="7.3">
                        <g transform="translate(317.851223, 430.000000)" id="Path">
                            <line x1="2.84217094e-14" y1="187.056458" x2="269.148777" y2="0"></line>
                        </g>
                    </g>
                    <g id="Run7" mask="url(#mask-2)" stroke="#FFFFFF" stroke-linecap="round" stroke-width="7.3">
                        <g transform="translate(554.000000, 460.500000) rotate(4.000000) translate(-554.000000, -460.500000) translate(439.000000, 264.000000)" id="Path">
                            <line x1="230" y1="-1.13686838e-13" x2="0" y2="393"></line>
                        </g>
                    </g>
                    <g id="Run4" mask="url(#mask-2)" stroke="#FFFFFF" stroke-linecap="round" stroke-width="7.3">
                        <g transform="translate(47.360294, 667.000000)" id="Path">
                            <line x1="0" y1="31.9060145" x2="185.639706" y2="0"></line>
                        </g>
                    </g>
                    <g id="Run3" mask="url(#mask-2)" stroke="#FFFFFF" stroke-linecap="round" stroke-width="7.3">
                        <g transform="translate(145.000000, 716.906114)" id="Path">
                            <line x1="101.560055" y1="0" x2="0" y2="25.0938857"></line>
                        </g>
                    </g>
                    <g id="START" mask="url(#mask-2)">
                        <g transform="translate(1173.901964, 652.019114)">
                            <ellipse id="Oval" fill="#4DB748" fill-rule="nonzero" cx="38.7622585" cy="38.7736833" rx="38.7622585" ry="38.7736833"></ellipse>
                            <path d="M9.76499292,41.2752112 L12.3253264,40.9774103 C12.6230396,43.0024567 13.5757219,44.0149799 15.1833731,44.0149799 C15.9574275,44.0149799 16.6123965,43.8362994 17.0887376,43.419378 C17.5650787,43.0024567 17.7437067,42.466415 17.7437067,41.8708131 C17.7437067,41.513452 17.684164,41.215651 17.5055361,40.9774103 C17.3269082,40.7391695 17.0887376,40.5009288 16.7910244,40.3818084 C16.4933112,40.2031278 15.6597143,39.9648871 14.4093188,39.5479657 C13.2780087,39.1906046 12.4444117,38.8332435 11.9680706,38.4163221 C11.4321868,37.9994008 11.0153884,37.5229193 10.7176752,36.8677572 C10.419962,36.2125951 10.241334,35.4978729 10.241334,34.7831506 C10.241334,33.8897477 10.419962,33.1154653 10.8367604,32.4603032 C11.2535589,31.7455809 11.7894427,31.2690994 12.4444117,30.9117383 C13.1589234,30.5543771 13.9925203,30.3756966 15.0047452,30.3756966 C16.5528539,30.3756966 17.7437067,30.7926179 18.5773036,31.6264605 C19.4109006,32.4603032 19.8872417,33.651507 19.9467843,35.2000719 L17.3269082,35.3191923 C17.2078229,34.4853496 16.9696523,33.8897477 16.5528539,33.5323866 C16.195598,33.1750255 15.6001716,32.9963449 14.8856599,32.9963449 C14.1711483,32.9963449 13.6352645,33.1154653 13.218466,33.4132662 C12.8612102,33.7110672 12.6230396,34.0684283 12.6230396,34.5449098 C12.6230396,34.9618311 12.8016676,35.3191923 13.1589234,35.6169932 C13.5161792,35.9147942 14.2902335,36.2125951 15.540629,36.5699563 C16.8505671,36.9273174 17.8032493,37.3442387 18.3986757,37.76116 C18.9941021,38.1780814 19.4109006,38.7141231 19.7681564,39.4288453 C20.0658696,40.0840074 20.2444975,40.9178501 20.2444975,41.8708131 C20.2444975,43.2406975 19.827699,44.4319013 18.9941021,45.3253041 C18.1605051,46.2782671 16.7910244,46.7547486 15.0047452,46.7547486 C11.908528,46.6951884 10.1222488,44.9083828 9.76499292,41.2752112 Z" id="Path" fill="#FFFFFF" fill-rule="nonzero"></path>
                            <polygon id="Path" fill="#FFFFFF" fill-rule="nonzero" points="25.4842498 46.4569477 25.4842498 33.2345857 21.6139782 33.2345857 21.6139782 30.5543771 31.9743976 30.5543771 31.9743976 33.2345857 28.104126 33.2345857 28.104126 46.4569477"></polygon>
                            <g id="Group" stroke-width="1" fill="none" fill-rule="evenodd" transform="translate(31.021715, 30.554377)">
                                <path d="M13.0993808,15.9025706 L10.241334,15.9025706 L9.11002389,12.3289592 L3.87027159,12.3289592 L2.79850407,15.9025706 L0,15.9025706 L5.06112438,0 L7.85962845,0 L13.0993808,15.9025706 Z M8.27642693,9.58919048 L6.49014774,3.69273174 L4.70386854,9.58919048 L8.27642693,9.58919048 Z" id="Shape" fill="#FFFFFF" fill-rule="nonzero"></path>
                                <path d="M14.4688615,15.9025706 L14.4688615,0 L20.006327,0 C21.4353503,0 22.4475752,0.119120379 23.0430016,0.416921325 C23.638428,0.714722272 24.1743117,1.19120379 24.5315676,1.90592606 C24.9483661,2.62064833 25.126994,3.45449098 25.126994,4.4670142 C25.126994,5.71777818 24.8292808,6.7303014 24.2338544,7.44502367 C23.638428,8.21930613 22.804831,8.69578764 21.6735209,8.87446821 C22.2094046,9.29138954 22.6857458,9.70831086 23.0430016,10.1847924 C23.4002574,10.6612739 23.9361412,11.5546767 24.5315676,12.7458805 L26.1392189,15.8430104 L22.983459,15.8430104 L21.0780945,12.3885194 C20.3635828,11.1377554 19.9467843,10.3634729 19.7086138,10.065672 C19.4704432,9.76787105 19.2322726,9.5296303 18.9345594,9.41050992 C18.6368462,9.29138954 18.2200478,9.23182935 17.6246214,9.23182935 L17.0887376,9.23182935 L17.0887376,15.8430104 L14.4688615,15.8430104 L14.4688615,15.9025706 Z M17.0887376,6.7303014 L19.0536447,6.7303014 C20.2444975,6.7303014 21.0185518,6.67074121 21.316265,6.55162083 C21.6139782,6.43250045 21.9116914,6.25381988 22.0903194,5.89645875 C22.2689473,5.53909761 22.3880326,5.18173647 22.3880326,4.64569477 C22.3880326,4.10965306 22.2689473,3.75229193 22.0903194,3.45449098 C21.9116914,3.15669004 21.6139782,2.91844928 21.2567224,2.7993289 C21.0185518,2.73976871 20.3040402,2.68020852 19.1131874,2.68020852 L17.029195,2.68020852 L17.029195,6.7303014 L17.0887376,6.7303014 Z" id="Shape" fill="#FFFFFF" fill-rule="nonzero"></path>
                                <polygon id="Path" fill="#FFFFFF" fill-rule="nonzero" points="30.5453742 15.9025706 30.5453742 2.68020852 26.6751026 2.68020852 26.6751026 0 37.0355219 0 37.0355219 2.68020852 33.1652504 2.68020852 33.1652504 15.9025706"></polygon>
                            </g>
                        </g>
                    </g>
                    <g id="Gear-Up" mask="url(#mask-2)">
                        <g transform="translate(359.180024, 698.356942)" id="Group">
                            <g transform="translate(0.000000, 0.000000)">
                                <ellipse id="Oval" fill="#194F90" fill-rule="nonzero" cx="20.8994666" cy="20.9056265" rx="20.8994666" ry="20.9056265"></ellipse>
                                <g transform="translate(5.239752, 13.103242)" fill="#FFFFFF" fill-rule="nonzero">
                                    <path d="M3.81072895,6.07513931 L3.81072895,4.4670142 L7.14511677,4.4670142 L7.14511677,8.15974594 C6.78786093,8.57666727 6.31151982,8.87446821 5.71609342,9.17226916 C5.12066702,9.47007011 4.46569798,9.58919048 3.87027159,9.58919048 C3.09621727,9.58919048 2.44124823,9.41050992 1.84582183,9.05314878 C1.25039544,8.69578764 0.833596957,8.10018575 0.476341118,7.38546348 C0.11908528,6.67074121 0,5.77733837 0,4.76481515 C0,3.75229193 0.178627919,2.85888909 0.535883758,2.14416682 C0.893139597,1.42944454 1.30993808,0.89340284 1.84582183,0.536041704 C2.38170559,0.178680568 3.03667463,0 3.81072895,0 C4.70386854,0 5.47792286,0.238240757 6.01380662,0.714722272 C6.54969038,1.19120379 6.90694621,1.84636587 7.08557413,2.73976871 L5.5374655,3.09712985 C5.41838022,2.62064833 5.2397523,2.2632872 4.88249646,2.02504644 C4.58478326,1.78680568 4.22752742,1.6676853 3.81072895,1.6676853 C3.15575991,1.6676853 2.61987615,1.90592606 2.20307767,2.44196776 C1.78627919,2.97800947 1.60765127,3.75229193 1.60765127,4.76481515 C1.60765127,5.89645875 1.84582183,6.7303014 2.26262031,7.32590329 C2.61987615,7.8023848 3.15575991,8.10018575 3.81072895,8.10018575 C4.10844214,8.10018575 4.40615534,8.04062556 4.76341118,7.86194499 C5.06112438,7.74282462 5.35883758,7.50458386 5.65655078,7.2663431 L5.65655078,6.07513931 L3.81072895,6.07513931 L3.81072895,6.07513931 Z" id="Path"></path>
                                    <polygon id="Path" points="8.57414013 9.47007011 8.57414013 0.119120379 14.2306909 0.119120379 14.2306909 1.72724549 10.1222488 1.72724549 10.1222488 3.81185212 13.9925203 3.81185212 13.9925203 5.36041704 10.1222488 5.36041704 10.1222488 7.92150518 14.4093188 7.92150518 14.4093188 9.5296303 8.57414013 9.5296303"></polygon>
                                    <path d="M22.6262031,9.47007011 L20.9590092,9.47007011 L20.3040402,7.38546348 L17.2673655,7.38546348 L16.6123965,9.47007011 L14.9452026,9.47007011 L17.9223346,0.119120379 L19.5299858,0.119120379 L22.6262031,9.47007011 Z M19.7681564,5.77733837 L18.6963889,2.32284738 L17.684164,5.77733837 L19.7681564,5.77733837 Z" id="Shape"></path>
                                    <path d="M23.4002574,9.47007011 L23.4002574,0.119120379 L26.6751026,0.119120379 C27.5086996,0.119120379 28.104126,0.178680568 28.4613818,0.357361136 C28.8186377,0.536041704 29.1163508,0.833842651 29.3545214,1.25076398 C29.592692,1.6676853 29.7117772,2.14416682 29.7117772,2.73976871 C29.7117772,3.45449098 29.5331493,4.05009288 29.1758935,4.52657439 C28.8186377,5.00305591 28.3422965,5.24129666 27.6873275,5.36041704 C28.0445833,5.5986578 28.2827539,5.83689856 28.5209245,6.1346995 C28.759095,6.43250045 29.0568082,6.90898196 29.414064,7.62370424 L30.3667463,9.47007011 L28.5209245,9.47007011 L27.3896143,7.44502367 C26.9728158,6.7303014 26.7346453,6.25381988 26.5560173,6.07513931 C26.3773894,5.89645875 26.2583041,5.77733837 26.0796762,5.71777818 C25.9010483,5.65821799 25.6628777,5.5986578 25.3056219,5.5986578 L25.0079087,5.5986578 L25.0079087,9.47007011 L23.4002574,9.47007011 Z M24.9483661,4.10965306 L26.0796762,4.10965306 C26.7941879,4.10965306 27.2109864,4.05009288 27.3896143,3.99053269 C27.5682422,3.9309725 27.7468701,3.81185212 27.8659554,3.63317155 C27.9850407,3.45449098 28.0445833,3.21625022 28.0445833,2.85888909 C28.0445833,2.56108814 27.9850407,2.32284738 27.8659554,2.14416682 C27.7468701,1.96548625 27.5682422,1.84636587 27.3896143,1.78680568 C27.270529,1.72724549 26.8537305,1.72724549 26.1392189,1.72724549 L24.9483661,1.72724549 L24.9483661,4.10965306 L24.9483661,4.10965306 Z" id="Shape"></path>
                                </g>
                                <path d="M13.5757219,25.1343999 L15.1238305,25.1343999 L15.1238305,30.197016 C15.1238305,30.9712985 15.1238305,31.5073402 15.1833731,31.7455809 C15.2429158,32.1625022 15.4215437,32.4603032 15.6597143,32.698544 C15.8978848,32.9367847 16.2551407,33.0559051 16.6719391,33.0559051 C17.029195,33.0559051 17.3269082,32.9963449 17.5650787,32.8176643 C17.8032493,32.6389838 17.9223346,32.4603032 18.0414199,32.1625022 C18.1009625,31.8647013 18.1605051,31.2690994 18.1605051,30.3161364 L18.1605051,25.1343999 L19.7086138,25.1343999 L19.7086138,30.0183354 C19.7086138,31.2690994 19.6490711,32.1625022 19.5299858,32.7581041 C19.4109006,33.2941458 19.1131874,33.7706274 18.6368462,34.1279885 C18.1605051,34.4853496 17.5650787,34.6640302 16.7910244,34.6640302 C16.0169701,34.6640302 15.3620011,34.5449098 14.9452026,34.2471089 C14.4688615,33.9493079 14.1711483,33.5323866 13.9925203,33.0559051 C13.8138924,32.5198634 13.6948071,31.5669004 13.6948071,30.197016 L13.6948071,25.1343999 L13.5757219,25.1343999 Z" id="Path" fill="#FFFFFF" fill-rule="nonzero"></path>
                                <path d="M21.316265,34.4853496 L21.316265,25.1343999 L23.8170559,25.1343999 C24.7697381,25.1343999 25.3651645,25.1939601 25.6033351,25.2535203 C26.0796762,25.3726407 26.4369321,25.7300018 26.7346453,26.2064833 C27.0323585,26.6829648 27.1514437,27.2785667 27.1514437,28.0528492 C27.1514437,28.7080113 27.0323585,29.3036132 26.7941879,29.7205345 C26.5560173,30.197016 26.1987615,30.4948169 25.8415057,30.6734975 C25.4842498,30.8521781 24.8292808,30.9712985 23.8765985,30.9712985 L22.8643737,30.9712985 L22.8643737,34.4853496 L21.316265,34.4853496 L21.316265,34.4853496 Z M22.8643737,26.742525 L22.8643737,29.4227335 L23.6979706,29.4227335 C24.293397,29.4227335 24.6506529,29.3631733 24.8888234,29.3036132 C25.126994,29.244053 25.2460793,29.0653724 25.4247072,28.8866918 C25.5437925,28.6484511 25.6033351,28.4102103 25.6033351,28.1124094 C25.6033351,27.8146084 25.5437925,27.5168075 25.4247072,27.3381269 C25.3056219,27.0998862 25.126994,26.9807658 24.9483661,26.9212056 C24.7697381,26.8616454 24.3529397,26.8020852 23.6979706,26.8020852 L22.8643737,26.8020852 L22.8643737,26.742525 Z" id="Shape" fill="#FFFFFF" fill-rule="nonzero"></path>
                            </g>
                        </g>
                    </g>
                    <g id="End" mask="url(#mask-2)">
                        <g transform="translate(392.762073, 652.555156)">
                            <ellipse id="Oval" fill="#F28F20" fill-rule="nonzero" cx="18.0414199" cy="18.0467374" rx="18.0414199" ry="18.0467374"></ellipse>
                            <g id="Group" stroke-width="1" fill="none" fill-rule="evenodd" transform="translate(7.800086, 13.401043)">
                                <polygon id="Path" fill="#FFFFFF" fill-rule="nonzero" points="0 9.35094973 0 0 5.65655078 0 5.65655078 1.60812511 1.54810863 1.60812511 1.54810863 3.69273174 5.41838022 3.69273174 5.41838022 5.24129666 1.54810863 5.24129666 1.54810863 7.8023848 5.8351787 7.8023848 5.8351787 9.41050992 0 9.41050992"></polygon>
                                <polygon id="Path" fill="#FFFFFF" fill-rule="nonzero" points="7.14511677 9.35094973 7.14511677 0 8.63368277 0 11.7894427 6.25381988 11.7894427 0 13.218466 0 13.218466 9.35094973 11.6703574 9.35094973 8.57414013 3.27581041 8.57414013 9.35094973"></polygon>
                                <path d="M14.8261173,0.0595601893 L17.6246214,0.0595601893 C18.3391331,0.0595601893 18.8750168,0.119120379 19.2322726,0.297800947 C19.5895285,0.476481515 19.9467843,0.714722272 20.2444975,1.1316436 C20.5422107,1.48900473 20.7803813,2.02504644 20.9590092,2.62064833 C21.1376371,3.21625022 21.1971798,3.99053269 21.1971798,4.88393553 C21.1971798,5.71777818 21.0780945,6.37294026 20.8994666,6.96854215 C20.7208386,7.56414405 20.4826681,8.04062556 20.1849549,8.3979867 C19.8872417,8.75534783 19.5895285,8.99358859 19.17273,9.17226916 C18.7559315,9.35094973 18.2795904,9.41050992 17.6246214,9.41050992 L14.707032,9.41050992 L14.707032,0.0595601893 L14.8261173,0.0595601893 Z M16.3742259,1.60812511 L16.3742259,7.8023848 L17.5055361,7.8023848 C17.9818772,7.8023848 18.3391331,7.74282462 18.5773036,7.68326443 C18.8154742,7.56414405 18.9941021,7.44502367 19.1131874,7.2663431 C19.2322726,7.08766253 19.3513579,6.78986159 19.4704432,6.37294026 C19.5895285,5.95601893 19.5895285,5.41997723 19.5895285,4.76481515 C19.5895285,4.05009288 19.5299858,3.51405117 19.4704432,3.15669004 C19.4109006,2.7993289 19.2322726,2.44196776 19.0536447,2.20372701 C18.8750168,1.96548625 18.5773036,1.84636587 18.3391331,1.72724549 C18.1009625,1.6676853 17.684164,1.6676853 17.0887376,1.6676853 L16.3742259,1.6676853 L16.3742259,1.60812511 Z" id="Shape" fill="#FFFFFF" fill-rule="nonzero"></path>
                            </g>
                        </g>
                    </g>
                </g>
            </g>
        </g>
    </g>
</svg>