<?xml version="1.0" encoding="UTF-8"?>
<svg width="1390px" height="947px" viewBox="0 0 1390 947" version="1.1" xmlns="http://www.w3.org/2000/svg" xmlns:xlink="http://www.w3.org/1999/xlink">
    <title>Runs</title>
    <defs>
        <rect id="path-1" x="0" y="0" width="1390" height="947" rx="50"></rect>
    </defs>
    <g id="Page-1" stroke="none" stroke-width="1" fill="none" fill-rule="evenodd">
        <g id="Static" transform="translate(-25.000000, -335.000000)">
            <g id="ZLTAMap" transform="translate(-3.000000, 2.000000)">
                <g id="Runs" transform="translate(28.000000, 333.000000)">
                    <mask id="mask-2" fill="white">
                        <use xlink:href="#path-1"></use>
                    </mask>
                    <use id="Mask" fill-opacity="0" fill="#FFFFFF" xlink:href="#path-1"></use>
                    <g>
                        <g transform="translate(113.000000, 271.000000)">
                            <g id="Run5" class="svg_zipline_run" transform="translate(220.000000, 206.000000)">
                                <g id="Group" transform="translate(0.000000, 0.000000)">
                                    <line x1="34.2523247" y1="89.9072165" x2="231" y2="0" id="Path" stroke="#FFFFFF" stroke-width="7.2974" stroke-linecap="round"></line>
                                    <g transform="translate(0.000000, 77.639175)" fill-rule="nonzero">
                                        <ellipse id="Oval" fill="#FF4713" cx="20.5513948" cy="20.6804124" rx="20.5513948" ry="20.6804124"></ellipse>
                                        <path d="M17.8228198,10.04811 L31.0593114,10.04811 C31.5818045,10.04811 31.8720784,10.1649485 32.0462428,10.3402062 C32.2204071,10.5738832 32.2784619,10.9828179 32.2784619,11.5670103 C32.2784619,12.443299 32.1042976,13.2611684 31.8140236,14.0790378 C31.5237497,14.8969072 31.1173662,15.5395189 30.6529279,16.0068729 C30.2465444,16.3573883 29.7821061,16.5910653 29.1435034,16.5910653 L20.7255592,16.5910653 C19.7966826,16.5910653 19.3322443,16.9415808 19.3322443,17.7010309 C19.3322443,17.9931271 19.4483539,18.2268041 19.680573,18.3436426 C19.9127922,18.4604811 20.3772305,18.5773196 21.1319427,18.6357388 C23.8605177,18.9278351 26.1827092,19.5120275 28.2146268,20.4467354 C29.6659965,21.0893471 30.7690374,22.0824742 31.6398593,23.3676976 C32.2784619,24.3024055 32.5687359,25.2955326 32.5687359,26.347079 C32.5687359,28.0996564 31.8140236,29.7353952 30.3045991,31.3127148 C29.1435034,32.5395189 27.5760241,33.532646 25.6602161,34.1752577 C23.7444081,34.8762887 21.6544358,35.1683849 19.3322443,35.1683849 C17.5325459,35.1683849 15.848957,34.9347079 14.3395325,34.467354 C12.9462176,34.0584192 12.2495602,33.2989691 12.2495602,32.3058419 C12.2495602,31.7216495 12.3656698,31.1958763 12.5398341,30.7869416 C12.7139985,30.3780069 12.9462176,30.1443299 13.2364916,30.1443299 C13.4106559,30.1443299 13.5848203,30.2027491 13.8170395,30.2611684 C14.3395325,30.4364261 14.9200804,30.5532646 15.6747927,30.6701031 C16.4295049,30.7869416 17.0100528,30.8453608 17.4164363,30.8453608 C18.4614225,30.8453608 19.3322443,30.6116838 19.9708469,30.1443299 C20.6094496,29.6769759 20.9577783,29.0927835 20.9577783,28.3333333 C20.9577783,27.3986254 20.4352852,26.6391753 19.4483539,25.9965636 C18.4614225,25.4123711 17.2422719,24.9450172 15.6747927,24.7113402 C14.3975873,24.4776632 13.6428751,24.3608247 13.3526012,24.3024055 C13.120382,24.2439863 12.8301081,24.1271478 12.6559437,24.0103093 C12.2495602,23.7182131 12.017341,23.3676976 12.017341,22.8419244 C12.017341,22.1408935 12.307615,20.8556701 12.8881629,18.8694158 C13.4687107,16.8831615 14.1073134,15.0137457 14.8620256,13.1443299 C15.4425735,11.6838488 15.9070118,10.7491409 16.1972858,10.3986254 C16.4875597,10.2233677 17.0681076,10.04811 17.8228198,10.04811 Z" id="Path" fill="#000000"></path>
                                        <path d="M16.139231,8.35395189 L29.3757225,8.35395189 C29.8982156,8.35395189 30.1884896,8.47079038 30.3626539,8.64604811 C30.5368183,8.87972509 30.5948731,9.28865979 30.5948731,9.87285223 C30.5948731,10.7491409 30.4207087,11.5670103 30.1304348,12.3848797 C29.8401608,13.2027491 29.4337773,13.8453608 28.969339,14.3127148 C28.5629555,14.6632302 28.0985172,14.8969072 27.4599146,14.8969072 L19.0419703,14.8969072 C18.1130937,14.8969072 17.6486554,15.2474227 17.6486554,16.0068729 C17.6486554,16.2989691 17.764765,16.532646 17.9969842,16.6494845 C18.2292033,16.766323 18.6936416,16.8831615 19.4483539,16.9415808 C22.1769289,17.233677 24.4991204,17.8178694 26.5310379,18.7525773 C27.9824076,19.395189 29.0854486,20.3883162 29.9562704,21.6735395 C30.5948731,22.6082474 30.885147,23.6013746 30.885147,24.652921 C30.885147,26.4054983 30.1304348,28.0412371 28.6210103,29.6185567 C27.4599146,30.8453608 25.8924353,31.838488 23.9766273,32.4810997 C22.0608193,33.1821306 19.9708469,33.4742268 17.6486554,33.4742268 C15.848957,33.4742268 14.1653682,33.2405498 12.6559437,32.7731959 C11.2626288,32.3642612 10.5659713,31.604811 10.5659713,30.6116838 C10.5659713,30.0274914 10.6820809,29.5017182 10.8562453,29.0927835 C11.0304097,28.6838488 11.2626288,28.4501718 11.5529027,28.4501718 C11.7270671,28.4501718 11.9012315,28.5085911 12.1334506,28.5670103 C12.6559437,28.742268 13.2364916,28.8591065 13.9912038,28.975945 C14.7459161,29.0927835 15.3264639,29.1512027 15.7328474,29.1512027 C16.7778336,29.1512027 17.6486554,28.9175258 18.2872581,28.4501718 C18.9258608,27.9828179 19.2741895,27.3986254 19.2741895,26.6391753 C19.2741895,25.7044674 18.7516964,24.9450172 17.764765,24.3024055 C16.7778336,23.7182131 15.5586831,23.2508591 13.9912038,23.0171821 C12.7139985,22.7835052 11.9592863,22.6666667 11.6690123,22.6082474 C11.4367932,22.5498282 11.1465192,22.4329897 10.9723549,22.3161512 C10.5659713,22.024055 10.3337522,21.6735395 10.3337522,21.1477663 C10.3337522,20.4467354 10.6240261,19.161512 11.204574,17.1752577 C11.7851219,15.1890034 12.4237246,13.3195876 13.1784368,11.4501718 C13.7589847,9.98969072 14.223423,9.05498282 14.5136969,8.70446735 C14.8039708,8.52920962 15.3845187,8.35395189 16.139231,8.35395189 Z" id="Path" stroke="#000000" stroke-width="1.0831" fill="#FFFFFF"></path>
                                    </g>
                                </g>
                            </g>
                            <g id="Run6" class="svg_zipline_run" transform="translate(518.000000, 93.000000)">
                                <g id="Group" transform="translate(0.000000, 0.000000)">
                                    <line x1="37.3860776" y1="31.2643678" x2="226" y2="65" id="Path" stroke="#FFFFFF" stroke-width="7.2974" stroke-linecap="round"></line>
                                    <g fill-rule="nonzero">
                                        <ellipse id="Oval" fill="#FF4713" cx="22.8728487" cy="22.6436782" rx="22.8728487" ry="22.6436782"></ellipse>
                                        <path d="M22.4084254,11.7816092 C22.9309016,11.7816092 23.8016954,11.954023 25.0208066,12.3563218 C25.6593886,12.5862069 26.2399178,12.816092 26.7043411,13.1034483 C27.1687644,13.3908046 27.4009761,13.6781609 27.4009761,13.908046 C27.4009761,14.0804598 27.3429232,14.2528736 27.1687644,14.4827586 C27.0526586,14.6551724 26.5882353,15.1724138 25.7754945,16.0344828 C25.2530182,16.5517241 24.8466478,17.183908 24.4402774,17.9310345 C24.033907,18.6781609 23.8597483,19.2528736 23.8597483,19.6551724 C23.8597483,19.8275862 23.9178012,20 24.033907,20.1149425 C24.1500128,20.2298851 24.2661187,20.2873563 24.4402774,20.2873563 C24.5563833,20.2873563 25.0208066,20.1724138 25.7754945,19.8850575 C26.820447,19.5402299 27.7492936,19.3103448 28.6781403,19.3103448 C30.245569,19.3103448 31.6388389,19.8275862 32.9160031,20.8045977 C34.7156435,22.183908 35.6444901,24.0229885 35.6444901,26.3218391 C35.6444901,28.1609195 35.1220139,29.8850575 34.0190085,31.6091954 C32.0452094,34.7126437 29.0264577,36.2643678 25.0788595,36.2643678 C21.8278962,36.2643678 19.1574621,35.3448276 17.1256101,33.4482759 C16.0226047,32.4137931 15.1518109,31.091954 14.5132289,29.4827586 C13.9907526,28.1609195 13.758541,26.8390805 13.758541,25.5172414 C13.758541,22.4137931 15.0357051,19.1954023 17.5319805,15.9770115 C18.7510917,14.4252874 19.6799384,13.3333333 20.4346263,12.7011494 C21.1893142,12.0689655 21.8278962,11.7816092 22.4084254,11.7816092 Z M24.4402774,24.5402299 C23.9178012,24.5402299 23.4533779,24.7126437 23.1631133,25.1149425 C22.8728487,25.5172414 22.69869,26.0344828 22.69869,26.6666667 C22.69869,27.7011494 23.0470074,28.6781609 23.8016954,29.7126437 C24.5563833,30.6896552 25.2530182,31.2068966 26.0657591,31.2068966 C26.5882353,31.2068966 26.9946057,31.0344828 27.2848703,30.7471264 C27.5751349,30.4597701 27.7492936,30.0574713 27.7492936,29.5402299 C27.7492936,28.7356322 27.5751349,27.8735632 27.1687644,26.954023 C26.820447,26.0344828 26.3560236,25.4022989 25.8335474,24.9425287 C25.3691241,24.7126437 24.9627537,24.5977011 24.4402774,24.5402299 Z" id="Shape" fill="#000000"></path>
                                        <path d="M20.8409967,10.2298851 C21.3634729,10.2298851 22.2342666,10.4022989 23.4533779,10.8045977 C24.0919599,11.0344828 24.6724891,11.2643678 25.1369124,11.5517241 C25.6013357,11.8390805 25.8335474,12.1264368 25.8335474,12.3563218 C25.8335474,12.5287356 25.7754945,12.7011494 25.6013357,12.9310345 C25.4852299,13.1034483 25.0208066,13.6206897 24.2080658,14.4827586 C23.6855895,15 23.2792191,15.6321839 22.8728487,16.3793103 C22.4664783,17.1264368 22.2923195,17.7011494 22.2923195,18.1034483 C22.2923195,18.2758621 22.3503725,18.4482759 22.4664783,18.5632184 C22.5825841,18.6781609 22.69869,18.7356322 22.8728487,18.7356322 C22.9889545,18.7356322 23.4533779,18.6206897 24.2080658,18.3333333 C25.2530182,17.9885057 26.1818649,17.7586207 27.1107115,17.7586207 C28.6781403,17.7586207 30.0714102,18.2758621 31.3485744,19.2528736 C33.1482147,20.6321839 34.0770614,22.4712644 34.0770614,24.7701149 C34.0770614,26.6091954 33.5545852,28.3333333 32.4515798,30.0574713 C30.4777806,33.1609195 27.459029,34.7126437 23.5114308,34.7126437 C20.2604675,34.7126437 17.5900334,33.7931034 15.5581814,31.8965517 C14.455176,30.862069 13.5843822,29.5402299 12.9458002,27.9310345 C12.4233239,26.6091954 12.1911123,25.2873563 12.1911123,23.9655172 C12.1911123,20.862069 13.4682764,17.6436782 15.9645518,14.4252874 C17.183663,12.8735632 18.1125096,11.7816092 18.8671975,11.1494253 C19.6218854,10.5172414 20.2604675,10.2298851 20.8409967,10.2298851 Z M22.8728487,22.9885057 C22.3503725,22.9885057 21.8859491,23.1609195 21.5956846,23.5632184 C21.30542,23.9655172 21.1312612,24.4827586 21.1312612,25.1149425 C21.1312612,26.1494253 21.4795787,27.1264368 22.2342666,28.1609195 C22.9889545,29.137931 23.6855895,29.6551724 24.4983303,29.6551724 C25.0208066,29.6551724 25.427177,29.4827586 25.7174416,29.1954023 C26.0077061,28.908046 26.1818649,28.5057471 26.1818649,27.9885057 C26.1818649,27.183908 26.0077061,26.3218391 25.6013357,25.4022989 C25.2530182,24.4827586 24.7885949,23.8505747 24.2661187,23.3908046 C23.8016954,23.2183908 23.3953249,23.045977 22.8728487,22.9885057 Z" id="Shape" stroke="#000000" stroke-width="1.0831" fill="#FFFFFF"></path>
                                    </g>
                                </g>
                            </g>
                            <g id="Run7" class="svg_zipline_run" transform="translate(349.000000, 0.000000)">
                                <g id="Group" transform="translate(0.000000, 0.000000)">
                                    <line x1="157.637942" y1="42.1077707" x2="0" y2="355" id="Path" stroke="#FFFFFF" stroke-width="7.2974" stroke-linecap="round"></line>
                                    <g transform="translate(142.427774, 0.000000)" fill-rule="nonzero">
                                        <ellipse id="Oval" fill="#FF4713" cx="22.7861128" cy="22.8035157" rx="22.7861128" ry="22.8035157"></ellipse>
                                        <path d="M34.7910725,14.0553639 L27.2151271,37.0921636 C27.0985741,37.3837687 26.9237446,37.6170527 26.6323621,37.7336948 C26.3409795,37.8503368 25.8747675,37.9086578 25.233726,37.9086578 C23.7768134,37.9086578 22.4947303,37.6753737 21.3292002,37.2671267 C20.1636702,36.8588796 19.5809051,36.3923115 19.5809051,35.8674224 C19.5809051,35.7507804 19.6391816,35.5758173 19.7557347,35.4008543 L26.7489151,22.0453425 C27.2734036,21.0538853 27.5065096,20.3540332 27.5065096,20.0041071 C27.5065096,19.537539 27.2151271,19.1876129 26.6323621,19.0126499 C26.049597,18.8376869 24.9423435,18.7793659 23.3688779,18.7793659 C21.4457533,18.7793659 20.1053937,18.8960079 19.2895226,19.1292919 C18.9398636,19.245934 18.6484811,19.479218 18.3570986,19.8291441 C18.0074396,20.2957122 17.716057,20.6456382 17.4246745,20.8206013 C17.133292,20.9955643 16.783633,21.0538853 16.317421,21.0538853 C15.4432734,21.0538853 14.8022319,20.7039593 14.3360198,20.0041071 C13.8698078,19.304255 13.6367018,18.2544768 13.6367018,16.9130935 C13.6367018,15.2801051 13.9280843,13.8804009 14.5108493,12.7139806 C14.8022319,12.1890915 15.1518909,11.7225234 15.6181029,11.3725973 C16.0843149,11.0226713 16.4922505,10.8477082 16.900186,10.8477082 C17.1915685,10.8477082 17.83261,11.0809923 18.7650341,11.4892394 C19.3477991,11.7225234 20.1636702,11.8391654 21.0960942,11.8391654 L33.1010539,11.8391654 C34.266584,11.8391654 34.849349,12.3057335 34.849349,13.1805487 C34.9076255,13.4138328 34.849349,13.7054378 34.7910725,14.0553639 Z" id="Path" fill="#000000"></path>
                                        <path d="M33.5089895,12.7723016 L25.933044,35.8091014 C25.816491,36.1007064 25.6416615,36.3339905 25.350279,36.4506325 C25.0588965,36.5672745 24.5926844,36.6255955 23.9516429,36.6255955 C22.4947303,36.6255955 21.2126472,36.3923115 20.0471172,35.9840644 C18.8815871,35.5758173 18.2988221,35.1092492 18.2988221,34.5843601 C18.2988221,34.4677181 18.3570986,34.2927551 18.4736516,34.117792 L25.466832,20.7622803 C25.9913205,19.7708231 26.2244265,19.0709709 26.2244265,18.7210448 C26.2244265,18.2544768 25.933044,17.9045507 25.350279,17.7295876 C24.7675139,17.5546246 23.6602604,17.4963036 22.0867948,17.4963036 C20.1636702,17.4963036 18.8233106,17.6129456 18.0074396,17.8462297 C17.6577805,17.9628717 17.366398,18.1961557 17.0750155,18.5460818 C16.7253565,19.0126499 16.433974,19.362576 16.1425914,19.537539 C15.8512089,19.7125021 15.5015499,19.7708231 15.0353379,19.7708231 C14.1611903,19.7708231 13.5201488,19.420897 13.0539368,18.7210448 C12.5877247,18.0211927 12.3546187,16.9714145 12.3546187,15.6300312 C12.3546187,13.9970429 12.6460012,12.5973386 13.2287663,11.4309184 C13.5201488,10.9060292 13.8698078,10.4394611 14.3360198,10.0895351 C14.8022319,9.739609 15.2101674,9.56464597 15.6181029,9.56464597 C15.9094854,9.56464597 16.550527,9.79793001 17.482951,10.2061771 C18.0657161,10.4394611 18.8815871,10.5561032 19.8140112,10.5561032 L31.8189709,10.5561032 C32.9845009,10.5561032 33.567266,11.0226713 33.567266,11.8974864 C33.683819,12.1890915 33.6255425,12.4806966 33.5089895,12.7723016 Z" id="Path" stroke="#000000" stroke-width="1.0831" fill="#FFFFFF"></path>
                                    </g>
                                </g>
                            </g>
                            <g id="Run4" class="svg_zipline_run" transform="translate(-0.000000, 357.000000)">
                                <g id="Group" transform="translate(0.000000, 0.000000)">
                                    <line x1="30.5696041" y1="25.2683246" x2="136" y2="27.8599476" id="Path" stroke="#FFFFFF" stroke-width="7.2974" stroke-linecap="round"></line>
                                    <g fill-rule="nonzero">
                                        <ellipse id="Oval" fill="#FF4713" cx="22.1166454" cy="22.5" rx="22.1166454" ry="22.5"></ellipse>
                                        <path d="M29.7590464,10.7787958 L29.7590464,23.854712 C29.7590464,24.2670157 29.8169434,24.5026178 29.9327373,24.6793194 C30.0485313,24.7971204 30.2222222,24.9149215 30.5117071,24.9149215 L31.2643678,24.9149215 C31.8433376,24.9149215 32.1328225,25.2683246 32.1907195,25.9751309 L32.1907195,29.8036649 C32.1907195,30.4515707 31.8433376,30.8638743 31.2064708,30.9227749 C30.801192,30.9816754 30.5117071,31.0405759 30.3959132,31.158377 C30.2801192,31.276178 30.2222222,31.5706806 30.2222222,31.9829843 L30.2222222,34.2212042 C30.2801192,34.986911 29.9327373,35.4581152 29.1221797,35.4581152 L22.7535121,35.4581152 C22.2903363,35.4581152 22.0008514,35.3992147 21.8850575,35.2225131 C21.7692635,35.0458115 21.6534696,34.7513089 21.6534696,34.2212042 L21.6534696,32.2774869 C21.6534696,31.7473822 21.5376756,31.3939791 21.3639847,31.158377 C21.1902937,30.9227749 20.8429119,30.8638743 20.3218391,30.8638743 L13.0847169,30.8638743 C12.2162622,30.8638743 11.5793955,30.6871728 11.2320136,30.3337696 C10.8846318,29.9803665 10.7109408,29.3324607 10.7109408,28.3900524 C10.7109408,27.1531414 10.8267348,26.210733 11.1162197,25.5628272 C11.4636015,24.7382199 12.4478501,23.2657068 14.1268625,21.263089 L18.8744146,15.4908377 C21.2481907,12.604712 22.9851,10.7787958 24.1430396,9.95418848 C24.6641124,9.60078534 25.2430822,9.30628272 25.9957429,9.07068063 C26.7484036,8.83507853 27.3852703,8.71727749 28.0221371,8.71727749 C28.6590038,8.71727749 29.0642827,8.89397906 29.3537676,9.18848168 C29.6432524,9.54188482 29.7590464,10.0719895 29.7590464,10.7787958 Z M21.9429544,20.6151832 L21.9429544,19.6727749 C21.9429544,18.5536649 21.6534696,17.9646597 21.0166028,17.9646597 C20.553427,17.9646597 20.0902512,18.2002618 19.6849723,18.7303665 L16.8480204,22.3232984 C16.0374628,23.3835079 15.6321839,24.0903141 15.6321839,24.5615183 C15.6321839,24.9149215 15.8058748,25.091623 16.1532567,25.2094241 C16.5006386,25.3272251 17.3690932,25.3861257 18.7586207,25.3861257 L20.2060451,25.3861257 C20.8429119,25.3861257 21.2481907,25.3272251 21.4797786,25.1505236 C21.7113665,24.973822 21.8271605,24.7382199 21.8850575,24.2670157 C21.8850575,23.6780105 21.9429544,22.382199 21.9429544,20.6151832 Z" id="Shape" fill="#000000"></path>
                                        <path d="M28.4853129,9.48298429 L28.4853129,22.5589005 C28.4853129,22.9712042 28.5432099,23.2068063 28.6590038,23.3835079 C28.7747978,23.5013089 28.9484887,23.6191099 29.2379736,23.6191099 L29.9906343,23.6191099 C30.5696041,23.6191099 30.859089,23.9725131 30.916986,24.6793194 L30.916986,28.5078534 C30.916986,29.1557592 30.5696041,29.5680628 29.9327373,29.6269634 C29.5274585,29.6858639 29.2379736,29.7447644 29.1221797,29.8625654 C29.0063857,29.9803665 28.9484887,30.2748691 28.9484887,30.6871728 L28.9484887,32.9253927 C29.0063857,33.6910995 28.6590038,34.1623037 27.8484461,34.1623037 L21.4797786,34.1623037 C21.0166028,34.1623037 20.7271179,34.1034031 20.611324,33.9267016 C20.49553,33.75 20.3797361,33.4554974 20.3797361,32.9253927 L20.3797361,30.9816754 C20.3797361,30.4515707 20.2639421,30.0981675 20.0902512,29.8625654 C19.9165602,29.6269634 19.5691784,29.5680628 19.0481056,29.5680628 L11.8109834,29.5680628 C10.9425287,29.5680628 10.305662,29.3913613 9.95828012,29.0379581 C9.61089825,28.684555 9.43720732,28.0366492 9.43720732,27.0942408 C9.43720732,25.8573298 9.55300128,24.9149215 9.84248616,24.2670157 C10.189868,23.4424084 11.1741166,21.9698953 12.853129,19.9672775 L17.6006811,14.1950262 C19.9744572,11.3089005 21.7113665,9.48298429 22.8693061,8.65837696 C23.3903789,8.30497382 23.9693487,8.0104712 24.7220094,7.77486911 C25.4746701,7.53926702 26.1115368,7.42146597 26.7484036,7.42146597 C27.3852703,7.42146597 27.7905492,7.59816754 28.0800341,7.89267016 C28.3695189,8.2460733 28.4853129,8.77617801 28.4853129,9.48298429 Z M20.6692209,19.3193717 L20.6692209,18.3769634 C20.6692209,17.2578534 20.3797361,16.6688482 19.7428693,16.6688482 C19.2796935,16.6688482 18.8165177,16.9044503 18.4112388,17.434555 L15.5742869,21.0274869 C14.7637292,22.0876963 14.3584504,22.7945026 14.3584504,23.2657068 C14.3584504,23.6191099 14.5321413,23.7958115 14.8795232,23.9136126 C15.2269051,24.0314136 16.0953597,24.0903141 17.4848872,24.0903141 L18.9323116,24.0903141 C19.5691784,24.0903141 19.9744572,24.0314136 20.2060451,23.854712 C20.437633,23.6780105 20.553427,23.4424084 20.611324,22.9712042 C20.611324,22.382199 20.6692209,21.0863874 20.6692209,19.3193717 Z" id="Shape" stroke="#000000" stroke-width="1.0831" fill="#FFFFFF"></path>
                                    </g>
                                </g>
                            </g>
                            <g id="Run3" class="svg_zipline_run" transform="translate(94.000000, 374.000000)">
                                <g id="Group" transform="translate(0.000000, 0.000000)">
                                    <line x1="79.0677026" y1="29.7573222" x2="0" y2="70" id="Path" stroke="#FFFFFF" stroke-width="7.2974" stroke-linecap="round"></line>
                                    <g transform="translate(57.251942, 0.000000)" fill-rule="nonzero">
                                        <ellipse id="Oval" fill="#FF4713" cx="23.3740289" cy="23.7238494" rx="23.3740289" ry="23.7238494"></ellipse>
                                        <path d="M23.4317425,12.6527197 C25.8557159,12.6527197 27.9334073,13.1213389 29.7802442,14 C30.5305216,14.3514644 31.1076582,14.8786611 31.5116537,15.5230126 C31.9156493,16.167364 32.1465039,16.8702929 32.1465039,17.5732218 C32.1465039,18.9205021 31.4539401,20.1506276 30.0688124,21.3221757 C29.6648169,21.6736402 29.4916759,21.9079498 29.4916759,22.083682 C29.4916759,22.4351464 29.8379578,22.6694561 30.5305216,22.8451883 C33.8779134,23.4895397 35.5516093,25.3640167 35.5516093,28.4686192 C35.5516093,30.460251 34.8590455,32.2175732 33.5316315,33.8577406 C32.2619312,35.4393305 30.3573807,36.5523013 27.81798,37.3138075 C26.0288568,37.8410042 24.008879,38.0753138 21.8734739,38.0753138 C19.3340733,38.0753138 17.1409545,37.7238494 15.3518313,37.0209205 C14.1975583,36.5523013 13.6204218,35.9079498 13.6204218,35.0292887 C13.6204218,34.5020921 13.7935627,34.0334728 14.1975583,33.6820084 C14.6015538,33.3305439 15.063263,33.1548117 15.6403996,33.1548117 C15.9289678,33.1548117 16.7946726,33.3305439 18.1220866,33.623431 C18.5837958,33.7405858 19.2186459,33.7991632 20.0266371,33.7991632 C21.527192,33.7991632 22.681465,33.4476987 23.5471698,32.7447699 C24.4705882,31.9832636 24.9322974,31.1631799 24.9322974,30.2259414 C24.9322974,29.3472803 24.5860155,28.5857741 23.8357381,28.0585774 C23.1431743,27.4728033 22.2197558,27.1799163 21.0654828,27.1799163 C20.372919,27.1799163 19.7380688,27.2384937 19.1609323,27.4142259 C18.8146504,27.5313808 18.5837958,27.5899582 18.4106548,27.5899582 C18.0643729,27.5899582 17.7758047,27.2384937 17.4295228,26.5941423 C17.0832408,25.9497908 16.9100999,25.3054393 16.9100999,24.6610879 C16.9100999,24.3682008 16.9678135,24.1338912 17.1409545,24.0753138 C17.3140954,23.958159 17.8335183,23.7824268 18.6992231,23.4895397 C19.4495006,23.2552301 20.199778,22.7280335 20.9500555,21.9665272 C21.4694784,21.3807531 21.7580466,20.7949791 21.7580466,20.1506276 C21.7580466,19.4476987 21.4694784,18.8033473 20.9500555,18.2761506 C20.372919,17.748954 19.7380688,17.5146444 18.9300777,17.5146444 C18.4683685,17.5146444 18.0643729,17.5732218 17.718091,17.6903766 C17.3718091,17.8075314 16.7946726,18.1004184 15.9289678,18.5690377 C15.6981132,18.6861925 15.4672586,18.8033473 15.2941176,18.8033473 C15.0055494,18.8033473 14.7169811,18.5690377 14.4284129,18.1589958 C14.1398446,17.748954 14.0244173,17.2803347 14.0244173,16.7531381 C14.0244173,15.874477 14.7746948,15.1129707 16.2752497,14.3514644 C17.1986681,13.8828452 18.2952275,13.4728033 19.6226415,13.1799163 C20.9500555,12.8870293 22.2197558,12.6527197 23.4317425,12.6527197 Z" id="Path" fill="#000000"></path>
                                        <path d="M22.3928968,10.7196653 C24.8168701,10.7196653 26.8945616,11.1882845 28.7413984,12.0669456 C29.4916759,12.41841 30.0688124,12.9456067 30.472808,13.5899582 C30.8768036,14.2343096 31.1076582,14.9372385 31.1076582,15.6401674 C31.1076582,16.9874477 30.4150943,18.2175732 29.0299667,19.3891213 C28.6259711,19.7405858 28.4528302,19.9748954 28.4528302,20.1506276 C28.4528302,20.5020921 28.7991121,20.7364017 29.4916759,20.9121339 C32.8390677,21.5564854 34.5127636,23.4309623 34.5127636,26.5355649 C34.5127636,28.5271967 33.8201998,30.2845188 32.4927858,31.9246862 C31.2230855,33.5062762 29.318535,34.6192469 26.7791343,35.3807531 C24.9900111,35.9079498 22.9700333,36.1422594 20.8346282,36.1422594 C18.2952275,36.1422594 16.1021088,35.790795 14.3129856,35.0878661 C13.1587125,34.6192469 12.581576,33.9748954 12.581576,33.0962343 C12.581576,32.5690377 12.754717,32.1004184 13.1587125,31.748954 C13.5627081,31.3974895 14.0244173,31.2217573 14.6015538,31.2217573 C14.8901221,31.2217573 15.7558269,31.3974895 17.0832408,31.6903766 C17.5449501,31.8075314 18.1798002,31.8661088 18.9877913,31.8661088 C20.4883463,31.8661088 21.6426193,31.5146444 22.5083241,30.8117155 C23.4317425,30.0502092 23.8934517,29.2301255 23.8934517,28.292887 C23.8934517,27.4142259 23.5471698,26.6527197 22.7968923,26.125523 C22.1043285,25.539749 21.1809101,25.2468619 20.0266371,25.2468619 C19.3340733,25.2468619 18.6992231,25.3054393 18.1220866,25.4811715 C17.7758047,25.5983264 17.5449501,25.6569038 17.3718091,25.6569038 C17.0255272,25.6569038 16.7369589,25.3054393 16.390677,24.6610879 C16.0443951,24.0167364 15.8712542,23.3723849 15.8712542,22.7280335 C15.8712542,22.4351464 15.9289678,22.2008368 16.1021088,22.1422594 C16.2752497,22.0251046 16.7946726,21.8493724 17.6603774,21.5564854 C18.4106548,21.3221757 19.1609323,20.7949791 19.9112098,20.0334728 C20.4306326,19.4476987 20.7192009,18.8619247 20.7192009,18.2175732 C20.7192009,17.5146444 20.4306326,16.8702929 19.9112098,16.3430962 C19.3340733,15.8158996 18.6992231,15.58159 17.891232,15.58159 C17.4295228,15.58159 17.0255272,15.6401674 16.6792453,15.7573222 C16.3329634,15.874477 15.7558269,16.167364 14.8901221,16.6359833 C14.6592675,16.7531381 14.4284129,16.8702929 14.2552719,16.8702929 C13.9667037,16.8702929 13.6781354,16.6359833 13.3895671,16.2259414 C13.1009989,15.8158996 12.9855716,15.3472803 12.9855716,14.8200837 C12.9855716,13.9414226 13.7358491,13.1799163 15.236404,12.41841 C16.1598224,11.9497908 17.2563818,11.539749 18.5837958,11.2468619 C19.9112098,10.9539749 21.1809101,10.7196653 22.3928968,10.7196653 Z" id="Path" stroke="#000000" stroke-width="1.0831" fill="#FFFFFF"></path>
                                    </g>
                                </g>
                            </g>
                        </g>
                    </g>
                </g>
            </g>
        </g>
    </g>
</svg>