<?xml version="1.0" encoding="UTF-8"?>
<svg width="1390px" height="947px" viewBox="0 0 1390 947" version="1.1" xmlns="http://www.w3.org/2000/svg" xmlns:xlink="http://www.w3.org/1999/xlink">
    <title>Runs</title>
    <defs>
        <rect id="path-1" x="0" y="0" width="1390" height="947" rx="50"></rect>
    </defs>
    <g id="Page-1" stroke="none" stroke-width="1" fill="none" fill-rule="evenodd">
        <g id="Static" transform="translate(-25.000000, -335.000000)">
            <g id="ZLTAMap" transform="translate(-3.000000, 2.000000)">
                <g id="Runs" transform="translate(28.000000, 333.000000)">
                    <mask id="mask-2" fill="white">
                        <use xlink:href="#path-1"></use>
                    </mask>
                    <use id="Mask" fill-opacity="0" fill="#FFFFFF" xlink:href="#path-1"></use>
                    <g mask="url(#mask-2)">
                        <g transform="translate(113.000000, 271.000000)">
                            <g id="Run5" class="svg_zipline_run" transform="translate(220.000000, 206.000000)">
                                <g id="Group" transform="translate(0.000000, 0.000000)">
                                    <line x1="34.2523247" y1="89.9072165" x2="231" y2="0" id="Path" stroke="#FFFFFF" stroke-width="7.2974" stroke-linecap="round"></line>
                                    <g transform="translate(0.000000, 77.639175)" fill-rule="nonzero">
                                        <ellipse id="Oval" fill="#FF4713" cx="20.5513948" cy="20.6804124" rx="20.5513948" ry="20.6804124"></ellipse>
                                        <path d="M17.8228198,10.04811 L31.0593114,10.04811 C31.5818045,10.04811 31.8720784,10.1649485 32.0462428,10.3402062 C32.2204071,10.5738832 32.2784619,10.9828179 32.2784619,11.5670103 C32.2784619,12.443299 32.1042976,13.2611684 31.8140236,14.0790378 C31.5237497,14.8969072 31.1173662,15.5395189 30.6529279,16.0068729 C30.2465444,16.3573883 29.7821061,16.5910653 29.1435034,16.5910653 L20.7255592,16.5910653 C19.7966826,16.5910653 19.3322443,16.9415808 19.3322443,17.7010309 C19.3322443,17.9931271 19.4483539,18.2268041 19.680573,18.3436426 C19.9127922,18.4604811 20.3772305,18.5773196 21.1319427,18.6357388 C23.8605177,18.9278351 26.1827092,19.5120275 28.2146268,20.4467354 C29.6659965,21.0893471 30.7690374,22.0824742 31.6398593,23.3676976 C32.2784619,24.3024055 32.5687359,25.2955326 32.5687359,26.347079 C32.5687359,28.0996564 31.8140236,29.7353952 30.3045991,31.3127148 C29.1435034,32.5395189 27.5760241,33.532646 25.6602161,34.1752577 C23.7444081,34.8762887 21.6544358,35.1683849 19.3322443,35.1683849 C17.5325459,35.1683849 15.848957,34.9347079 14.3395325,34.467354 C12.9462176,34.0584192 12.2495602,33.2989691 12.2495602,32.3058419 C12.2495602,31.7216495 12.3656698,31.1958763 12.5398341,30.7869416 C12.7139985,30.3780069 12.9462176,30.1443299 13.2364916,30.1443299 C13.4106559,30.1443299 13.5848203,30.2027491 13.8170395,30.2611684 C14.3395325,30.4364261 14.9200804,30.5532646 15.6747927,30.6701031 C16.4295049,30.7869416 17.0100528,30.8453608 17.4164363,30.8453608 C18.4614225,30.8453608 19.3322443,30.6116838 19.9708469,30.1443299 C20.6094496,29.6769759 20.9577783,29.0927835 20.9577783,28.3333333 C20.9577783,27.3986254 20.4352852,26.6391753 19.4483539,25.9965636 C18.4614225,25.4123711 17.2422719,24.9450172 15.6747927,24.7113402 C14.3975873,24.4776632 13.6428751,24.3608247 13.3526012,24.3024055 C13.120382,24.2439863 12.8301081,24.1271478 12.6559437,24.0103093 C12.2495602,23.7182131 12.017341,23.3676976 12.017341,22.8419244 C12.017341,22.1408935 12.307615,20.8556701 12.8881629,18.8694158 C13.4687107,16.8831615 14.1073134,15.0137457 14.8620256,13.1443299 C15.4425735,11.6838488 15.9070118,10.7491409 16.1972858,10.3986254 C16.4875597,10.2233677 17.0681076,10.04811 17.8228198,10.04811 Z" id="Path" fill="#000000"></path>
                                        <path d="M16.139231,8.35395189 L29.3757225,8.35395189 C29.8982156,8.35395189 30.1884896,8.47079038 30.3626539,8.64604811 C30.5368183,8.87972509 30.5948731,9.28865979 30.5948731,9.87285223 C30.5948731,10.7491409 30.4207087,11.5670103 30.1304348,12.3848797 C29.8401608,13.2027491 29.4337773,13.8453608 28.969339,14.3127148 C28.5629555,14.6632302 28.0985172,14.8969072 27.4599146,14.8969072 L19.0419703,14.8969072 C18.1130937,14.8969072 17.6486554,15.2474227 17.6486554,16.0068729 C17.6486554,16.2989691 17.764765,16.532646 17.9969842,16.6494845 C18.2292033,16.766323 18.6936416,16.8831615 19.4483539,16.9415808 C22.1769289,17.233677 24.4991204,17.8178694 26.5310379,18.7525773 C27.9824076,19.395189 29.0854486,20.3883162 29.9562704,21.6735395 C30.5948731,22.6082474 30.885147,23.6013746 30.885147,24.652921 C30.885147,26.4054983 30.1304348,28.0412371 28.6210103,29.6185567 C27.4599146,30.8453608 25.8924353,31.838488 23.9766273,32.4810997 C22.0608193,33.1821306 19.9708469,33.4742268 17.6486554,33.4742268 C15.848957,33.4742268 14.1653682,33.2405498 12.6559437,32.7731959 C11.2626288,32.3642612 10.5659713,31.604811 10.5659713,30.6116838 C10.5659713,30.0274914 10.6820809,29.5017182 10.8562453,29.0927835 C11.0304097,28.6838488 11.2626288,28.4501718 11.5529027,28.4501718 C11.7270671,28.4501718 11.9012315,28.5085911 12.1334506,28.5670103 C12.6559437,28.742268 13.2364916,28.8591065 13.9912038,28.975945 C14.7459161,29.0927835 15.3264639,29.1512027 15.7328474,29.1512027 C16.7778336,29.1512027 17.6486554,28.9175258 18.2872581,28.4501718 C18.9258608,27.9828179 19.2741895,27.3986254 19.2741895,26.6391753 C19.2741895,25.7044674 18.7516964,24.9450172 17.764765,24.3024055 C16.7778336,23.7182131 15.5586831,23.2508591 13.9912038,23.0171821 C12.7139985,22.7835052 11.9592863,22.6666667 11.6690123,22.6082474 C11.4367932,22.5498282 11.1465192,22.4329897 10.9723549,22.3161512 C10.5659713,22.024055 10.3337522,21.6735395 10.3337522,21.1477663 C10.3337522,20.4467354 10.6240261,19.161512 11.204574,17.1752577 C11.7851219,15.1890034 12.4237246,13.3195876 13.1784368,11.4501718 C13.7589847,9.98969072 14.223423,9.05498282 14.5136969,8.70446735 C14.8039708,8.52920962 15.3845187,8.35395189 16.139231,8.35395189 Z" id="Path" stroke="#000000" stroke-width="1.0831" fill="#FFFFFF"></path>
                                    </g>
                                </g>
                            </g>
                            <g id="Run6" class="svg_zipline_run" transform="translate(518.000000, 93.000000)">
                                <g id="Group" transform="translate(0.000000, 0.000000)">
                                    <line x1="37.3860776" y1="31.2643678" x2="226" y2="65" id="Path" stroke="#FFFFFF" stroke-width="7.2974" stroke-linecap="round"></line>
                                    <ellipse id="Oval" fill="#FF4713" fill-rule="nonzero" cx="22.8728487" cy="22.6436782" rx="22.8728487" ry="22.6436782"></ellipse>
                                    <path d="M22.4084254,11.7816092 C22.9309016,11.7816092 23.8016954,11.954023 25.0208066,12.3563218 C25.6593886,12.5862069 26.2399178,12.816092 26.7043411,13.1034483 C27.1687644,13.3908046 27.4009761,13.6781609 27.4009761,13.908046 C27.4009761,14.0804598 27.3429232,14.2528736 27.1687644,14.4827586 C27.0526586,14.6551724 26.5882353,15.1724138 25.7754945,16.0344828 C25.2530182,16.5517241 24.8466478,17.183908 24.4402774,17.9310345 C24.033907,18.6781609 23.8597483,19.2528736 23.8597483,19.6551724 C23.8597483,19.8275862 23.9178012,20 24.033907,20.1149425 C24.1500128,20.2298851 24.2661187,20.2873563 24.4402774,20.2873563 C24.5563833,20.2873563 25.0208066,20.1724138 25.7754945,19.8850575 C26.820447,19.5402299 27.7492936,19.3103448 28.6781403,19.3103448 C30.245569,19.3103448 31.6388389,19.8275862 32.9160031,20.8045977 C34.7156435,22.183908 35.6444901,24.0229885 35.6444901,26.3218391 C35.6444901,28.1609195 35.1220139,29.8850575 34.0190085,31.6091954 C32.0452094,34.7126437 29.0264577,36.2643678 25.0788595,36.2643678 C21.8278962,36.2643678 19.1574621,35.3448276 17.1256101,33.4482759 C16.0226047,32.4137931 15.1518109,31.091954 14.5132289,29.4827586 C13.9907526,28.1609195 13.758541,26.8390805 13.758541,25.5172414 C13.758541,22.4137931 15.0357051,19.1954023 17.5319805,15.9770115 C18.7510917,14.4252874 19.6799384,13.3333333 20.4346263,12.7011494 C21.1893142,12.0689655 21.8278962,11.7816092 22.4084254,11.7816092 Z M24.4402774,24.5402299 C23.9178012,24.5402299 23.4533779,24.7126437 23.1631133,25.1149425 C22.8728487,25.5172414 22.69869,26.0344828 22.69869,26.6666667 C22.69869,27.7011494 23.0470074,28.6781609 23.8016954,29.7126437 C24.5563833,30.6896552 25.2530182,31.2068966 26.0657591,31.2068966 C26.5882353,31.2068966 26.9946057,31.0344828 27.2848703,30.7471264 C27.5751349,30.4597701 27.7492936,30.0574713 27.7492936,29.5402299 C27.7492936,28.7356322 27.5751349,27.8735632 27.1687644,26.954023 C26.820447,26.0344828 26.3560236,25.4022989 25.8335474,24.9425287 C25.3691241,24.7126437 24.9627537,24.5977011 24.4402774,24.5402299 Z" id="Shape" fill="#000000" fill-rule="nonzero"></path>
                                    <path d="M20.8409967,10.2298851 C21.3634729,10.2298851 22.2342666,10.4022989 23.4533779,10.8045977 C24.0919599,11.0344828 24.6724891,11.2643678 25.1369124,11.5517241 C25.6013357,11.8390805 25.8335474,12.1264368 25.8335474,12.3563218 C25.8335474,12.5287356 25.7754945,12.7011494 25.6013357,12.9310345 C25.4852299,13.1034483 25.0208066,13.6206897 24.2080658,14.4827586 C23.6855895,15 23.2792191,15.6321839 22.8728487,16.3793103 C22.4664783,17.1264368 22.2923195,17.7011494 22.2923195,18.1034483 C22.2923195,18.2758621 22.3503725,18.4482759 22.4664783,18.5632184 C22.5825841,18.6781609 22.69869,18.7356322 22.8728487,18.7356322 C22.9889545,18.7356322 23.4533779,18.6206897 24.2080658,18.3333333 C25.2530182,17.9885057 26.1818649,17.7586207 27.1107115,17.7586207 C28.6781403,17.7586207 30.0714102,18.2758621 31.3485744,19.2528736 C33.1482147,20.6321839 34.0770614,22.4712644 34.0770614,24.7701149 C34.0770614,26.6091954 33.5545852,28.3333333 32.4515798,30.0574713 C30.4777806,33.1609195 27.459029,34.7126437 23.5114308,34.7126437 C20.2604675,34.7126437 17.5900334,33.7931034 15.5581814,31.8965517 C14.455176,30.862069 13.5843822,29.5402299 12.9458002,27.9310345 C12.4233239,26.6091954 12.1911123,25.2873563 12.1911123,23.9655172 C12.1911123,20.862069 13.4682764,17.6436782 15.9645518,14.4252874 C17.183663,12.8735632 18.1125096,11.7816092 18.8671975,11.1494253 C19.6218854,10.5172414 20.2604675,10.2298851 20.8409967,10.2298851 Z M22.8728487,22.9885057 C22.3503725,22.9885057 21.8859491,23.1609195 21.5956846,23.5632184 C21.30542,23.9655172 21.1312612,24.4827586 21.1312612,25.1149425 C21.1312612,26.1494253 21.4795787,27.1264368 22.2342666,28.1609195 C22.9889545,29.137931 23.6855895,29.6551724 24.4983303,29.6551724 C25.0208066,29.6551724 25.427177,29.4827586 25.7174416,29.1954023 C26.0077061,28.908046 26.1818649,28.5057471 26.1818649,27.9885057 C26.1818649,27.183908 26.0077061,26.3218391 25.6013357,25.4022989 C25.2530182,24.4827586 24.7885949,23.8505747 24.2661187,23.3908046 C23.8016954,23.2183908 23.3953249,23.045977 22.8728487,22.9885057 Z" id="Shape" stroke="#000000" stroke-width="1.0831" fill="#FFFFFF" fill-rule="nonzero"></path>
                                </g>
                            </g>
                            <g id="Run7" class="svg_zipline_run" transform="translate(349.000000, 0.000000)">
                                <g id="Group" transform="translate(0.000000, 0.000000)">
                                    <line x1="157.637942" y1="42.1077707" x2="0" y2="355" id="Path" stroke="#FFFFFF" stroke-width="7.2974" stroke-linecap="round"></line>
                                    <g transform="translate(142.427774, 0.000000)" fill-rule="nonzero">
                                        <ellipse id="Oval" fill="#FF4713" cx="22.7861128" cy="22.8035157" rx="22.7861128" ry="22.8035157"></ellipse>
                                        <path d="M34.7910725,14.0553639 L27.2151271,37.0921636 C27.0985741,37.3837687 26.9237446,37.6170527 26.6323621,37.7336948 C26.3409795,37.8503368 25.8747675,37.9086578 25.233726,37.9086578 C23.7768134,37.9086578 22.4947303,37.6753737 21.3292002,37.2671267 C20.1636702,36.8588796 19.5809051,36.3923115 19.5809051,35.8674224 C19.5809051,35.7507804 19.6391816,35.5758173 19.7557347,35.4008543 L26.7489151,22.0453425 C27.2734036,21.0538853 27.5065096,20.3540332 27.5065096,20.0041071 C27.5065096,19.537539 27.2151271,19.1876129 26.6323621,19.0126499 C26.049597,18.8376869 24.9423435,18.7793659 23.3688779,18.7793659 C21.4457533,18.7793659 20.1053937,18.8960079 19.2895226,19.1292919 C18.9398636,19.245934 18.6484811,19.479218 18.3570986,19.8291441 C18.0074396,20.2957122 17.716057,20.6456382 17.4246745,20.8206013 C17.133292,20.9955643 16.783633,21.0538853 16.317421,21.0538853 C15.4432734,21.0538853 14.8022319,20.7039593 14.3360198,20.0041071 C13.8698078,19.304255 13.6367018,18.2544768 13.6367018,16.9130935 C13.6367018,15.2801051 13.9280843,13.8804009 14.5108493,12.7139806 C14.8022319,12.1890915 15.1518909,11.7225234 15.6181029,11.3725973 C16.0843149,11.0226713 16.4922505,10.8477082 16.900186,10.8477082 C17.1915685,10.8477082 17.83261,11.0809923 18.7650341,11.4892394 C19.3477991,11.7225234 20.1636702,11.8391654 21.0960942,11.8391654 L33.1010539,11.8391654 C34.266584,11.8391654 34.849349,12.3057335 34.849349,13.1805487 C34.9076255,13.4138328 34.849349,13.7054378 34.7910725,14.0553639 Z" id="Path" fill="#000000"></path>
                                        <path d="M33.5089895,12.7723016 L25.933044,35.8091014 C25.816491,36.1007064 25.6416615,36.3339905 25.350279,36.4506325 C25.0588965,36.5672745 24.5926844,36.6255955 23.9516429,36.6255955 C22.4947303,36.6255955 21.2126472,36.3923115 20.0471172,35.9840644 C18.8815871,35.5758173 18.2988221,35.1092492 18.2988221,34.5843601 C18.2988221,34.4677181 18.3570986,34.2927551 18.4736516,34.117792 L25.466832,20.7622803 C25.9913205,19.7708231 26.2244265,19.0709709 26.2244265,18.7210448 C26.2244265,18.2544768 25.933044,17.9045507 25.350279,17.7295876 C24.7675139,17.5546246 23.6602604,17.4963036 22.0867948,17.4963036 C20.1636702,17.4963036 18.8233106,17.6129456 18.0074396,17.8462297 C17.6577805,17.9628717 17.366398,18.1961557 17.0750155,18.5460818 C16.7253565,19.0126499 16.433974,19.362576 16.1425914,19.537539 C15.8512089,19.7125021 15.5015499,19.7708231 15.0353379,19.7708231 C14.1611903,19.7708231 13.5201488,19.420897 13.0539368,18.7210448 C12.5877247,18.0211927 12.3546187,16.9714145 12.3546187,15.6300312 C12.3546187,13.9970429 12.6460012,12.5973386 13.2287663,11.4309184 C13.5201488,10.9060292 13.8698078,10.4394611 14.3360198,10.0895351 C14.8022319,9.739609 15.2101674,9.56464597 15.6181029,9.56464597 C15.9094854,9.56464597 16.550527,9.79793001 17.482951,10.2061771 C18.0657161,10.4394611 18.8815871,10.5561032 19.8140112,10.5561032 L31.8189709,10.5561032 C32.9845009,10.5561032 33.567266,11.0226713 33.567266,11.8974864 C33.683819,12.1890915 33.6255425,12.4806966 33.5089895,12.7723016 Z" id="Path" stroke="#000000" stroke-width="1.0831" fill="#FFFFFF"></path>
                                    </g>
                                </g>
                            </g>
                            <g id="Run4" class="svg_zipline_run" transform="translate(0.000000, 357.000000)">
                                <g id="Group" transform="translate(0.000000, 0.000000)">
                                    <line x1="30.5696041" y1="25.2683246" x2="136" y2="27.8599476" id="Path" stroke="#FFFFFF" stroke-width="7.2974" stroke-linecap="round"></line>
                                    <ellipse id="Oval" fill="#FF4713" fill-rule="nonzero" cx="22.1166454" cy="22.5" rx="22.1166454" ry="22.5"></ellipse>
                                    <g transform="translate(9.437207, 7.421466)" fill-rule="nonzero" id="Shape">
                                        <path d="M20.3218391,3.35732984 L20.3218391,16.4332461 C20.3218391,16.8455497 20.3797361,17.0811518 20.49553,17.2578534 C20.611324,17.3756545 20.7850149,17.4934555 21.0744998,17.4934555 L21.8271605,17.4934555 C22.4061303,17.4934555 22.6956152,17.8468586 22.7535121,18.5536649 L22.7535121,22.382199 C22.7535121,23.0301047 22.4061303,23.4424084 21.7692635,23.5013089 C21.3639847,23.5602094 21.0744998,23.6191099 20.9587058,23.736911 C20.8429119,23.854712 20.7850149,24.1492147 20.7850149,24.5615183 L20.7850149,26.7997382 C20.8429119,27.565445 20.49553,28.0366492 19.6849723,28.0366492 L13.3163048,28.0366492 C12.853129,28.0366492 12.5636441,27.9777487 12.4478501,27.8010471 C12.3320562,27.6243455 12.2162622,27.3298429 12.2162622,26.7997382 L12.2162622,24.8560209 C12.2162622,24.3259162 12.1004683,23.9725131 11.9267774,23.736911 C11.7530864,23.5013089 11.4057046,23.4424084 10.8846318,23.4424084 L3.64750958,23.4424084 C2.77905492,23.4424084 2.14218817,23.2657068 1.7948063,22.9123037 C1.44742444,22.5589005 1.2737335,21.9109948 1.2737335,20.9685864 C1.2737335,19.7316754 1.38952746,18.789267 1.67901235,18.1413613 C2.02639421,17.3167539 3.01064283,15.8442408 4.68965517,13.841623 L9.43720732,8.06937173 C11.8109834,5.18324607 13.5478927,3.35732984 14.7058323,2.53272251 C15.2269051,2.17931937 15.8058748,1.88481675 16.5585355,1.64921466 C17.3111963,1.41361257 17.948063,1.29581152 18.5849298,1.29581152 C19.2217965,1.29581152 19.6270754,1.47251309 19.9165602,1.76701571 C20.2060451,2.12041885 20.3218391,2.65052356 20.3218391,3.35732984 Z M12.5057471,13.1937173 L12.5057471,12.2513089 C12.5057471,11.132199 12.2162622,10.5431937 11.5793955,10.5431937 C11.1162197,10.5431937 10.6530438,10.7787958 10.247765,11.3089005 L7.41081311,14.9018325 C6.60025543,15.9620419 6.19497659,16.6688482 6.19497659,17.1400524 C6.19497659,17.4934555 6.36866752,17.6701571 6.71604938,17.7879581 C7.06343125,17.9057592 7.93188591,17.9646597 9.32141337,17.9646597 L10.7688378,17.9646597 C11.4057046,17.9646597 11.8109834,17.9057592 12.0425713,17.7290576 C12.2741592,17.552356 12.3899532,17.3167539 12.4478501,16.8455497 C12.4478501,16.2565445 12.5057471,14.960733 12.5057471,13.1937173 Z" fill="#000000"></path>
                                        <path d="M19.0481056,2.06151832 L19.0481056,15.1374346 C19.0481056,15.5497382 19.1060026,15.7853403 19.2217965,15.9620419 C19.3375905,16.0798429 19.5112814,16.197644 19.8007663,16.197644 L20.553427,16.197644 C21.1323968,16.197644 21.4218817,16.5510471 21.4797786,17.2578534 L21.4797786,21.0863874 C21.4797786,21.7342932 21.1323968,22.1465969 20.49553,22.2054974 C20.0902512,22.2643979 19.8007663,22.3232984 19.6849723,22.4410995 C19.5691784,22.5589005 19.5112814,22.8534031 19.5112814,23.2657068 L19.5112814,25.5039267 C19.5691784,26.2696335 19.2217965,26.7408377 18.4112388,26.7408377 L12.0425713,26.7408377 C11.5793955,26.7408377 11.2899106,26.6819372 11.1741166,26.5052356 C11.0583227,26.328534 10.9425287,26.0340314 10.9425287,25.5039267 L10.9425287,23.5602094 C10.9425287,23.0301047 10.8267348,22.6767016 10.6530438,22.4410995 C10.4793529,22.2054974 10.1319711,22.1465969 9.61089825,22.1465969 L2.37377607,22.1465969 C1.50532141,22.1465969 0.868454662,21.9698953 0.521072797,21.6164921 C0.173690932,21.263089 0,20.6151832 0,19.6727749 C0,18.4358639 0.115793955,17.4934555 0.405278842,16.8455497 C0.752660707,16.0209424 1.73690932,14.5484293 3.41592167,12.5458115 L8.16347382,6.77356021 C10.5372499,3.88743455 12.2741592,2.06151832 13.4320988,1.23691099 C13.9531716,0.883507853 14.5321413,0.589005236 15.284802,0.353403141 C16.0374628,0.117801047 16.6743295,0 17.3111963,0 C17.948063,0 18.3533418,0.176701571 18.6428267,0.471204188 C18.9323116,0.82460733 19.0481056,1.35471204 19.0481056,2.06151832 Z M11.2320136,11.8979058 L11.2320136,10.9554974 C11.2320136,9.83638743 10.9425287,9.2473822 10.305662,9.2473822 C9.84248616,9.2473822 9.37931034,9.48298429 8.9740315,10.013089 L6.13707961,13.6060209 C5.32652192,14.6662304 4.92124308,15.3730366 4.92124308,15.8442408 C4.92124308,16.197644 5.09493401,16.3743455 5.44231588,16.4921466 C5.78969774,16.6099476 6.65815241,16.6688482 8.04767986,16.6688482 L9.4951043,16.6688482 C10.1319711,16.6688482 10.5372499,16.6099476 10.7688378,16.4332461 C11.0004257,16.2565445 11.1162197,16.0209424 11.1741166,15.5497382 C11.1741166,14.960733 11.2320136,13.6649215 11.2320136,11.8979058 Z" stroke="#000000" stroke-width="1.0831" fill="#FFFFFF"></path>
                                    </g>
                                </g>
                            </g>
                            <g id="Run3" class="svg_zipline_run" transform="translate(94.000000, 374.000000)">
                                <g id="Group" transform="translate(0.000000, 0.000000)">
                                    <line x1="79.0677026" y1="29.7573222" x2="0" y2="70" id="Path" stroke="#FFFFFF" stroke-width="7.2974" stroke-linecap="round"></line>
                                    <g transform="translate(57.251942, 0.000000)" fill-rule="nonzero">
                                        <ellipse id="Oval" fill="#FF4713" cx="23.3740289" cy="23.7238494" rx="23.3740289" ry="23.7238494"></ellipse>
                                        <g transform="translate(12.581576, 10.719665)" id="Path">
                                            <path d="M10.8501665,1.93305439 C13.2741398,1.93305439 15.3518313,2.40167364 17.1986681,3.28033473 C17.9489456,3.63179916 18.5260821,4.15899582 18.9300777,4.80334728 C19.3340733,5.44769874 19.5649279,6.15062762 19.5649279,6.85355649 C19.5649279,8.20083682 18.872364,9.43096234 17.4872364,10.6025105 C17.0832408,10.9539749 16.9100999,11.1882845 16.9100999,11.3640167 C16.9100999,11.7154812 17.2563818,11.9497908 17.9489456,12.125523 C21.2963374,12.7698745 22.9700333,14.6443515 22.9700333,17.748954 C22.9700333,19.7405858 22.2774695,21.4979079 20.9500555,23.1380753 C19.6803552,24.7196653 17.7758047,25.832636 15.236404,26.5941423 C13.4472808,27.1213389 11.427303,27.3556485 9.29189789,27.3556485 C6.75249723,27.3556485 4.55937847,27.0041841 2.77025527,26.3012552 C1.61598224,25.832636 1.03884573,25.1882845 1.03884573,24.3096234 C1.03884573,23.7824268 1.21198668,23.3138075 1.61598224,22.9623431 C2.0199778,22.6108787 2.48168701,22.4351464 3.05882353,22.4351464 C3.34739179,22.4351464 4.21309656,22.6108787 5.54051054,22.9037657 C6.00221976,23.0209205 6.63706992,23.0794979 7.44506104,23.0794979 C8.94561598,23.0794979 10.099889,22.7280335 10.9655938,22.0251046 C11.8890122,21.2635983 12.3507214,20.4435146 12.3507214,19.5062762 C12.3507214,18.6276151 12.0044395,17.8661088 11.254162,17.3389121 C10.5615982,16.7531381 9.6381798,16.460251 8.48390677,16.460251 C7.79134295,16.460251 7.15649279,16.5188285 6.57935627,16.6945607 C6.23307436,16.8117155 6.00221976,16.8702929 5.8290788,16.8702929 C5.48279689,16.8702929 5.19422863,16.5188285 4.84794673,15.874477 C4.50166482,15.2301255 4.32852386,14.5857741 4.32852386,13.9414226 C4.32852386,13.6485356 4.38623751,13.4142259 4.55937847,13.3556485 C4.73251942,13.2384937 5.25194229,13.0627615 6.11764706,12.7698745 C6.86792453,12.5355649 7.618202,12.0083682 8.36847947,11.2468619 C8.88790233,10.6610879 9.17647059,10.0753138 9.17647059,9.43096234 C9.17647059,8.72803347 8.88790233,8.08368201 8.36847947,7.55648536 C7.79134295,7.0292887 7.15649279,6.79497908 6.34850166,6.79497908 C5.88679245,6.79497908 5.48279689,6.85355649 5.13651498,6.9707113 C4.79023307,7.08786611 4.21309656,7.38075314 3.34739179,7.84937238 C3.11653718,7.9665272 2.88568257,8.08368201 2.71254162,8.08368201 C2.42397336,8.08368201 2.13540511,7.84937238 1.84683685,7.43933054 C1.55826859,7.0292887 1.44284129,6.56066946 1.44284129,6.0334728 C1.44284129,5.15481172 2.19311876,4.39330544 3.6936737,3.63179916 C4.61709212,3.16317992 5.7136515,2.75313808 7.04106548,2.46025105 C8.36847947,2.16736402 9.6381798,1.93305439 10.8501665,1.93305439 Z" fill="#000000"></path>
                                            <path d="M9.81132075,0 C12.2352941,0 14.3129856,0.468619247 16.1598224,1.34728033 C16.9100999,1.69874477 17.4872364,2.22594142 17.891232,2.87029289 C18.2952275,3.51464435 18.5260821,4.21757322 18.5260821,4.92050209 C18.5260821,6.26778243 17.8335183,7.49790795 16.4483907,8.66945607 C16.0443951,9.0209205 15.8712542,9.25523013 15.8712542,9.43096234 C15.8712542,9.78242678 16.2175361,10.0167364 16.9100999,10.1924686 C20.2574917,10.8368201 21.9311876,12.7112971 21.9311876,15.8158996 C21.9311876,17.8075314 21.2386238,19.5648536 19.9112098,21.2050209 C18.6415094,22.7866109 16.7369589,23.8995816 14.1975583,24.6610879 C12.4084351,25.1882845 10.3884573,25.4225941 8.25305216,25.4225941 C5.7136515,25.4225941 3.52053274,25.0711297 1.73140954,24.3682008 C0.577136515,23.8995816 0,23.2552301 0,22.376569 C0,21.8493724 0.173140954,21.3807531 0.577136515,21.0292887 C0.981132075,20.6778243 1.44284129,20.5020921 2.0199778,20.5020921 C2.30854606,20.5020921 3.17425083,20.6778243 4.50166482,20.9707113 C4.96337403,21.0878661 5.5982242,21.1464435 6.40621532,21.1464435 C7.90677026,21.1464435 9.06104329,20.7949791 9.92674806,20.0920502 C10.8501665,19.3305439 11.3118757,18.5104603 11.3118757,17.5732218 C11.3118757,16.6945607 10.9655938,15.9330544 10.2153163,15.4058577 C9.5227525,14.8200837 8.59933407,14.5271967 7.44506104,14.5271967 C6.75249723,14.5271967 6.11764706,14.5857741 5.54051054,14.7615063 C5.19422863,14.8786611 4.96337403,14.9372385 4.79023307,14.9372385 C4.44395117,14.9372385 4.15538291,14.5857741 3.809101,13.9414226 C3.46281909,13.2970711 3.28967814,12.6527197 3.28967814,12.0083682 C3.28967814,11.7154812 3.34739179,11.4811715 3.52053274,11.4225941 C3.6936737,11.3054393 4.21309656,11.1297071 5.07880133,10.8368201 C5.8290788,10.6025105 6.57935627,10.0753138 7.32963374,9.31380753 C7.8490566,8.72803347 8.13762486,8.14225941 8.13762486,7.49790795 C8.13762486,6.79497908 7.8490566,6.15062762 7.32963374,5.62343096 C6.75249723,5.09623431 6.11764706,4.86192469 5.30965594,4.86192469 C4.84794673,4.86192469 4.44395117,4.92050209 4.09766926,5.0376569 C3.75138735,5.15481172 3.17425083,5.44769874 2.30854606,5.91631799 C2.07769145,6.0334728 1.84683685,6.15062762 1.67369589,6.15062762 C1.38512764,6.15062762 1.09655938,5.91631799 0.807991121,5.50627615 C0.519422863,5.09623431 0.40399556,4.62761506 0.40399556,4.10041841 C0.40399556,3.22175732 1.15427303,2.46025105 2.65482797,1.69874477 C3.57824639,1.23012552 4.67480577,0.820083682 6.00221976,0.527196653 C7.32963374,0.234309623 8.59933407,0 9.81132075,0 Z" stroke="#000000" stroke-width="1.0831" fill="#FFFFFF"></path>
                                        </g>
                                    </g>
                                </g>
                            </g>
                        </g>
                    </g>
                </g>
            </g>
        </g>
    </g>
</svg>